<svg width="14" height="19" viewBox="0 0 14 19" fill="none" xmlns="http://www.w3.org/2000/svg">
<path d="M6.86 18.6377C4.949 18.6377 3.32792 17.9722 1.99675 16.641C0.665583 15.3098 0 13.6887 0 11.7777C0 10.2424 0.45325 8.86632 1.35975 7.64949C2.26625 6.43266 3.4545 5.61191 4.9245 5.18724C4.59783 5.10557 4.27933 4.98716 3.969 4.83199C3.65867 4.67682 3.381 4.47674 3.136 4.23174C2.597 3.69274 2.24992 3.05166 2.09475 2.30849C1.93958 1.56532 1.90283 0.809908 1.9845 0.0422414C2.75217 -0.0394253 3.50758 -0.00267528 4.25075 0.152491C4.99392 0.307658 5.635 0.654741 6.174 1.19374C6.54967 1.56941 6.82325 1.99407 6.99475 2.46774C7.16625 2.94141 7.2765 3.43957 7.3255 3.96224C7.53783 3.45591 7.79508 2.97816 8.09725 2.52899C8.39942 2.07982 8.73833 1.66741 9.114 1.29174C9.29367 1.11207 9.52233 1.02224 9.8 1.02224C10.0777 1.02224 10.3063 1.11207 10.486 1.29174C10.6657 1.47141 10.7555 1.70007 10.7555 1.97774C10.7555 2.25541 10.6657 2.48407 10.486 2.66374C10.1267 3.02307 9.80817 3.41916 9.5305 3.85199C9.25283 4.28482 9.04867 4.74624 8.918 5.23624C10.3553 5.69357 11.515 6.52249 12.397 7.72299C13.279 8.92349 13.72 10.2751 13.72 11.7777C13.72 13.6887 13.0544 15.3098 11.7232 16.641C10.3921 17.9722 8.771 18.6377 6.86 18.6377ZM6.86 16.6777C8.21567 16.6777 9.37125 16.2 10.3268 15.2445C11.2823 14.289 11.76 13.1334 11.76 11.7777C11.76 10.4221 11.2823 9.26649 10.3268 8.31099C9.37125 7.35549 8.21567 6.87774 6.86 6.87774C5.50433 6.87774 4.34875 7.35549 3.39325 8.31099C2.43775 9.26649 1.96 10.4221 1.96 11.7777C1.96 13.1334 2.43775 14.289 3.39325 15.2445C4.34875 16.2 5.50433 16.6777 6.86 16.6777Z" fill="#3D4A39"/>
</svg>
